<svg xmlns="http://www.w3.org/2000/svg" viewBox="0 0 405 174" width="405" height="174">
	<style>
		tspan { white-space:pre }
		.shp0 { fill: #939598 } 
		.shp1 { fill: #ffffff } 
		.shp2 { fill: #e31e36 } 
	</style>
	<path id="Layer" class="shp0" d="M45.6,204.33h4.63c2.7,0 4.34,1.6 4.34,3.95c0,2.62 -2.04,3.98 -4.58,3.98h-1.89v3.4h-2.49zM50.07,210.05c1.25,0 1.97,-0.75 1.97,-1.75c0,-1.12 -0.78,-1.72 -2.02,-1.72h-1.93v3.47z" />
	<path id="Layer" class="shp0" d="M60.69,210c0,-3.22 2.54,-5.86 6.04,-5.86c3.5,0 6,2.6 6,5.86c0,3.22 -2.54,5.86 -6.04,5.86c-3.5,0 -6,-2.61 -6,-5.86zM70.12,210c0,-1.94 -1.43,-3.56 -3.43,-3.56c-2.01,0 -3.4,1.59 -3.4,3.56c0,1.94 1.42,3.56 3.43,3.56c2.01,0 3.4,-1.59 3.4,-3.56z" />
	<path id="Layer" class="shp0" d="M78.2,204.33h2.67l2.35,7.67l2.54,-7.7h2.14l2.54,7.7l2.35,-7.67h2.61l-3.87,11.41h-2.17l-2.56,-7.41l-2.56,7.41h-2.17z" />
	<path id="Layer" class="shp0" d="M102.02,204.33h8.55v2.22h-6.07v2.3h5.34v2.22h-5.34v2.38h6.15v2.22h-8.63z" />
	<path id="Layer" class="shp0" d="M117.64,204.33h5.18c1.44,0 2.56,0.41 3.3,1.15c0.63,0.63 0.97,1.52 0.97,2.62c0,1.83 -0.99,2.98 -2.43,3.51l2.77,4.04h-2.91l-2.46,-3.62h-1.93v3.63h-2.49zM122.65,209.84c1.22,0 1.91,-0.65 1.91,-1.63c0,-1.07 -0.75,-1.62 -1.96,-1.62h-2.48v3.25z" />
	<path id="Layer" class="shp0" d="M143.24,210c0,-3.22 2.54,-5.86 6.03,-5.86c3.5,0 6,2.6 6,5.86c0,3.22 -2.54,5.86 -6.04,5.86c-3.5,0 -6,-2.61 -6,-5.86zM152.67,210c0,-1.94 -1.43,-3.56 -3.43,-3.56c-2.01,0 -3.4,1.59 -3.4,3.56c0,1.94 1.42,3.56 3.43,3.56c2.01,0 3.4,-1.59 3.4,-3.56z" />
	<path id="Layer" class="shp0" d="M162.27,204.33h2.3l5.31,6.97v-6.97h2.46v11.33h-2.12l-5.49,-7.2v7.2h-2.46z" />
	<path id="Layer" class="shp0" d="M192.65,211.2l-4.35,-6.86h2.91l2.7,4.55l2.75,-4.55h2.83l-4.35,6.81v4.52h-2.49z" />
	<path id="Layer" class="shp0" d="M204.35,210c0,-3.22 2.54,-5.86 6.03,-5.86c3.5,0 6,2.6 6,5.86c0,3.22 -2.54,5.86 -6.04,5.86c-3.5,0 -6,-2.61 -6,-5.86zM213.79,210c0,-1.94 -1.43,-3.56 -3.43,-3.56c-2.01,0 -3.4,1.59 -3.4,3.56c0,1.94 1.42,3.56 3.43,3.56c2.01,0 3.4,-1.59 3.4,-3.56z" />
	<path id="Layer" class="shp0" d="M223.21,210.81v-6.47h2.49v6.41c0,1.84 0.92,2.8 2.44,2.8c1.52,0 2.44,-0.92 2.44,-2.72v-6.49h2.49v6.39c0,3.43 -1.93,5.11 -4.97,5.11c-3.04,0 -4.9,-1.7 -4.9,-5.03z" />
	<path id="Layer" class="shp0" d="M245.57,204.33c1.44,0 2.56,0.41 3.3,1.15c0.63,0.63 0.97,1.52 0.97,2.62c0,1.83 -0.99,2.98 -2.43,3.51l2.77,4.04h-2.91l-2.46,-3.62h-1.93v3.63h-2.49v-11.33zM245.41,209.84c1.22,0 1.91,-0.65 1.91,-1.63c0,-1.07 -0.74,-1.62 -1.96,-1.62h-2.48v3.25z" />
	<path id="Layer" class="shp0" d="M266.5,204.33h8.54v2.22h-6.07v2.3h5.34v2.22h-5.34v2.38h6.15v2.22h-8.63z" />
	<path id="Layer" class="shp0" d="M282.12,204.33h2.3l5.31,6.97v-6.97h2.46v11.33h-2.12l-5.49,-7.2v7.2h-2.46z" />
	<path id="Layer" class="shp0" d="M299.68,204.33h8.55v2.22h-6.07v2.3h5.34v2.22h-5.34v2.38h6.15v2.22h-8.62z" />
	<path id="Layer" class="shp0" d="M320.48,204.33c1.44,0 2.56,0.41 3.3,1.15c0.63,0.63 0.97,1.52 0.97,2.62c0,1.83 -0.99,2.98 -2.43,3.51l2.77,4.04h-2.91l-2.46,-3.62h-1.93v3.63h-2.49v-11.33zM320.32,209.84c1.21,0 1.91,-0.65 1.91,-1.63c0,-1.07 -0.75,-1.62 -1.96,-1.62h-2.48v3.25z" />
	<path id="Layer" class="shp0" d="M331.28,210c0,-3.22 2.51,-5.86 5.94,-5.86c2.04,0 3.27,0.55 4.45,1.55l-1.57,1.9c-0.87,-0.73 -1.65,-1.15 -2.96,-1.15c-1.81,0 -3.25,1.6 -3.25,3.56c0,2.07 1.42,3.59 3.43,3.59c0.91,0 1.72,-0.23 2.35,-0.68v-1.62h-2.51v-2.15h4.92v4.92c-1.17,0.99 -2.77,1.8 -4.84,1.8c-3.53,0 -5.96,-2.48 -5.96,-5.86z" />
	<path id="Layer" class="shp0" d="M351.94,211.2l-4.35,-6.86h2.91l2.7,4.55l2.75,-4.55h2.83l-4.35,6.81v4.52h-2.49z" />
	<path id="Layer" class="shp1" d="M95.26,65.54c-2.48,-0.93 -5.17,-1.44 -7.97,-1.44c-1.32,0 -2.62,0.11 -3.88,0.33c-9.47,1.63 -16.96,9.12 -18.59,18.59c-0.22,1.26 -0.33,2.56 -0.33,3.89c0,12.58 10.23,22.81 22.81,22.81c1.32,0 2.62,-0.11 3.88,-0.33c8.27,-1.42 15.02,-7.31 17.69,-15.08h19.52c-3.5,19.51 -20.6,34.35 -41.1,34.35c-4.63,0 -9.08,-0.76 -13.24,-2.15c-12.39,-4.15 -22.21,-13.97 -26.36,-26.36c-1.4,-4.16 -2.15,-8.61 -2.15,-13.24c0,-23.02 18.73,-41.75 41.75,-41.75c4.63,0 9.08,0.76 13.24,2.15c2.28,0.76 4.47,1.72 6.55,2.85c0.77,0.41 1.52,0.85 2.25,1.31c1.15,0.72 2.24,1.52 3.31,2.34l2.34,-2.34c5.42,3.38 10.01,7.97 13.39,13.39l-14.07,14.07l-15.37,15.38h-26.79l26.92,-26.92c-1.2,-0.73 -2.47,-1.35 -3.8,-1.85z" />
	<path id="Layer" class="shp1" d="M178.73,64.29c-11.6,0.78 -20.83,10.26 -21.2,21.97v3.54v18.18v19.91c-6.23,1.44 -12.72,1.44 -18.94,0v-19.9v-21.74v-18.18v-19.9c6.23,-1.44 12.72,-1.44 18.94,0v4.01c6.15,-4.02 13.39,-6.49 21.2,-6.77c1.44,6.21 1.44,12.69 0,18.91z" />
	<path id="Layer" class="shp1" d="M265.04,68.05v21.74h-0.02v30.49c0,11.5 -4.67,21.91 -12.21,29.45l0.02,0.01c-0.01,-0.01 -0.02,-0.01 -0.03,-0.02l0,0v0.01c-7.55,7.55 -17.97,12.23 -29.45,12.23c-1.44,-6.23 -1.44,-12.72 0,-18.94l0,0.03c6.27,0 11.97,-2.56 16.09,-6.68c1.53,-1.53 2.84,-3.28 3.89,-5.19c0.03,-0.07 0.07,-0.14 0.1,-0.2c0.29,-0.54 0.55,-1.08 0.79,-1.65c0.08,-0.18 0.15,-0.37 0.23,-0.56c0.18,-0.45 0.35,-0.9 0.5,-1.36c0.09,-0.27 0.17,-0.55 0.25,-0.82c0.11,-0.39 0.21,-0.78 0.3,-1.17c0.08,-0.34 0.15,-0.68 0.21,-1.02c0.06,-0.35 0.12,-0.71 0.16,-1.06c0.05,-0.38 0.1,-0.75 0.13,-1.13c0.01,-0.1 0.01,-0.2 0.02,-0.3c-6.54,4.26 -14.32,6.77 -22.69,6.77c-22.98,0 -41.68,-18.69 -41.68,-41.68c0,-22.98 18.7,-41.68 41.68,-41.68c8.39,0 16.2,2.52 22.75,6.8v-3.96c6.23,-1.44 12.72,-1.44 18.94,0v19.91z" />
	<path id="Layer" class="shp1" d="M316.9,128.66c-22.98,0 -41.68,-18.69 -41.68,-41.68c0,-22.98 18.69,-41.68 41.68,-41.68c22.98,0 41.68,18.7 41.68,41.68c0,22.98 -18.7,41.68 -41.68,41.68z" />
	<path id="Layer" class="shp2" d="M95.26,65.54c-2.48,-0.93 -5.17,-1.44 -7.97,-1.44c-1.33,0 -2.62,0.11 -3.88,0.33c-9.47,1.63 -16.96,9.12 -18.59,18.59c-0.22,1.26 -0.33,2.56 -0.33,3.89c0,12.58 10.23,22.81 22.81,22.81c1.32,0 2.62,-0.11 3.88,-0.33c8.27,-1.42 15.03,-7.31 17.69,-15.08h19.52c-3.5,19.51 -20.6,34.35 -41.1,34.35c-4.63,0 -9.08,-0.76 -13.24,-2.15c-12.39,-4.15 -22.21,-13.97 -26.36,-26.36c-1.4,-4.16 -2.15,-8.61 -2.15,-13.24c0,-23.02 18.73,-41.75 41.75,-41.75c4.63,0 9.08,0.76 13.24,2.15c2.28,0.76 4.47,1.72 6.55,2.85c0.77,0.41 1.52,0.85 2.25,1.31c1.15,0.72 2.24,1.52 3.31,2.34l2.34,-2.34c5.42,3.38 10.01,7.97 13.4,13.4l-14.08,14.08l-15.37,15.37h-26.79l26.92,-26.92c-1.2,-0.73 -2.47,-1.35 -3.8,-1.85zM178.73,64.29c-11.6,0.78 -20.83,10.26 -21.2,21.97v41.62c-6.23,1.44 -12.72,1.44 -18.94,0v-79.73c6.23,-1.44 12.72,-1.44 18.94,0v4.01c6.15,-4.02 13.39,-6.49 21.2,-6.77c1.44,6.21 1.44,12.69 0,18.91zM265.04,68.05v21.74h-0.02v30.48c0,11.5 -4.67,21.91 -12.21,29.45l0.01,0.01c-0.01,-0.01 -0.02,-0.01 -0.03,-0.02l0,0v0.01c-7.55,7.55 -17.97,12.22 -29.45,12.22c-1.44,-6.23 -1.44,-12.72 0,-18.94l0,0.03c6.27,0 11.97,-2.56 16.09,-6.68c1.53,-1.53 2.84,-3.28 3.89,-5.19c0.04,-0.07 0.07,-0.14 0.1,-0.2c0.29,-0.54 0.55,-1.09 0.79,-1.65c0.08,-0.18 0.15,-0.37 0.23,-0.56c0.18,-0.45 0.35,-0.9 0.5,-1.36c0.09,-0.27 0.17,-0.55 0.25,-0.82c0.11,-0.39 0.21,-0.78 0.3,-1.17c0.08,-0.34 0.15,-0.68 0.21,-1.02c0.06,-0.35 0.12,-0.71 0.16,-1.06c0.05,-0.38 0.1,-0.75 0.13,-1.14c0.01,-0.1 0.01,-0.2 0.01,-0.3c-6.54,4.26 -14.32,6.77 -22.69,6.77c-22.98,0 -41.68,-18.7 -41.68,-41.68c0,-22.98 18.7,-41.68 41.68,-41.68c8.39,0 16.2,2.52 22.75,6.8v-3.96c6.23,-1.44 12.72,-1.44 18.94,0v19.9zM316.9,128.66c-22.98,0 -41.68,-18.7 -41.68,-41.68c0,-22.98 18.69,-41.68 41.68,-41.68c22.98,0 41.68,18.7 41.68,41.68c0,22.98 -18.7,41.68 -41.68,41.68zM316.86,0h-229.62c-48.18,0 -87.25,39.06 -87.25,87.25c0,48.19 39.06,87.25 87.25,87.25v0h229.62v0c48.19,0 87.25,-39.06 87.25,-87.25c0,-48.18 -39.06,-87.25 -87.25,-87.25z" />
	<path id="Layer" class="shp2" d="M223.34,64.21c-12.56,0 -22.77,10.21 -22.77,22.77c0,12.55 10.21,22.77 22.77,22.77c12.44,0 22.56,-10.03 22.75,-22.42v-0.7c-0.19,-12.39 -10.31,-22.42 -22.75,-22.42z" />
	<path id="Layer" class="shp2" d="M316.9,64.21c-12.56,0 -22.77,10.21 -22.77,22.77c0,12.55 10.21,22.77 22.77,22.77c12.55,0 22.77,-10.21 22.77,-22.77c0,-12.55 -10.21,-22.77 -22.77,-22.77z" />
</svg>